<svg width="125" height="69" viewBox="0 0 125 69" fill="none" xmlns="http://www.w3.org/2000/svg">
<path d="M48.1641 55.2324C47.9004 57.4883 47.0654 59.2314 45.6592 60.4619C44.2627 61.6826 42.4023 62.293 40.0781 62.293C37.5586 62.293 35.5371 61.3896 34.0137 59.583C32.5 57.7764 31.7432 55.3594 31.7432 52.332V50.2812C31.7432 48.2988 32.0947 46.5557 32.7979 45.0518C33.5107 43.5479 34.5166 42.3955 35.8154 41.5947C37.1143 40.7842 38.6182 40.3789 40.3271 40.3789C42.5928 40.3789 44.4092 41.0137 45.7764 42.2832C47.1436 43.543 47.9395 45.291 48.1641 47.5273H45.3369C45.0928 45.8281 44.5605 44.5977 43.7402 43.8359C42.9297 43.0742 41.792 42.6934 40.3271 42.6934C38.5303 42.6934 37.1191 43.3574 36.0938 44.6855C35.0781 46.0137 34.5703 47.9033 34.5703 50.3545V52.4199C34.5703 54.7344 35.0537 56.5752 36.0205 57.9424C36.9873 59.3096 38.3398 59.9932 40.0781 59.9932C41.6406 59.9932 42.8369 59.6416 43.667 58.9385C44.5068 58.2256 45.0635 56.9902 45.3369 55.2324H48.1641ZM68.4082 62H65.5811V52.1416H54.8291V62H52.0166V40.6719H54.8291V49.8418H65.5811V40.6719H68.4082V62ZM85.459 52.1416H76.2158V59.7002H86.9531V62H73.4033V40.6719H86.8066V42.9863H76.2158V49.8418H85.459V52.1416ZM95.874 52.083L93.2666 54.793V62H90.4541V40.6719H93.2666V51.2188L102.744 40.6719H106.143L97.749 50.0908L106.802 62H103.433L95.874 52.083ZM115.547 52.4932C113.135 51.7998 111.377 50.9502 110.273 49.9443C109.18 48.9287 108.633 47.6787 108.633 46.1943C108.633 44.5146 109.302 43.1279 110.64 42.0342C111.987 40.9307 113.735 40.3789 115.884 40.3789C117.349 40.3789 118.652 40.6621 119.795 41.2285C120.947 41.7949 121.836 42.5762 122.461 43.5723C123.096 44.5684 123.413 45.6572 123.413 46.8389H120.586C120.586 45.5498 120.176 44.5391 119.355 43.8066C118.535 43.0645 117.378 42.6934 115.884 42.6934C114.497 42.6934 113.413 43.001 112.632 43.6162C111.86 44.2217 111.475 45.0664 111.475 46.1504C111.475 47.0195 111.841 47.7568 112.573 48.3623C113.315 48.958 114.57 49.5049 116.338 50.0029C118.115 50.501 119.502 51.0527 120.498 51.6582C121.504 52.2539 122.246 52.9521 122.725 53.7529C123.213 54.5537 123.457 55.4961 123.457 56.5801C123.457 58.3086 122.783 59.6953 121.436 60.7402C120.088 61.7754 118.286 62.293 116.03 62.293C114.565 62.293 113.198 62.0146 111.929 61.458C110.659 60.8916 109.678 60.1201 108.984 59.1436C108.301 58.167 107.959 57.0586 107.959 55.8184H110.786C110.786 57.1074 111.26 58.1279 112.207 58.8799C113.164 59.6221 114.438 59.9932 116.03 59.9932C117.515 59.9932 118.652 59.6904 119.443 59.085C120.234 58.4795 120.63 57.6543 120.63 56.6094C120.63 55.5645 120.264 54.7588 119.531 54.1924C118.799 53.6162 117.471 53.0498 115.547 52.4932Z" fill="#4A71D4"/>
<path d="M3.30078 37V8.5625H11.3281C13.8021 8.5625 15.9896 9.10938 17.8906 10.2031C19.7917 11.2969 21.2565 12.8529 22.2852 14.8711C23.3268 16.8893 23.8542 19.207 23.8672 21.8242V23.6406C23.8672 26.3229 23.3464 28.6732 22.3047 30.6914C21.276 32.7096 19.7982 34.2591 17.8711 35.3398C15.957 36.4206 13.724 36.974 11.1719 37H3.30078ZM7.05078 11.6484V33.9336H10.9961C13.8867 33.9336 16.1328 33.0352 17.7344 31.2383C19.349 29.4414 20.1562 26.8828 20.1562 23.5625V21.9023C20.1562 18.6732 19.3945 16.1667 17.8711 14.3828C16.3607 12.5859 14.2122 11.6745 11.4258 11.6484H7.05078ZM44.8242 29.5781H32.9102L30.2344 37H26.3672L37.2266 8.5625H40.5078L51.3867 37H47.5391L44.8242 29.5781ZM34.043 26.4922H43.7109L38.8672 13.1914L34.043 26.4922ZM60.0586 8.5625L69.3555 31.7656L78.6523 8.5625H83.5156V37H79.7656V25.9258L80.1172 13.9727L70.7812 37H67.9102L58.5938 14.0312L58.9648 25.9258V37H55.2148V8.5625H60.0586Z" fill="#A2A5A2"/>
</svg>
